<?xml version="1.0" encoding="UTF-8" standalone="no"?>
<!DOCTYPE svg PUBLIC "-//W3C//DTD SVG 1.1//EN"
 "http://www.w3.org/Graphics/SVG/1.1/DTD/svg11.dtd">
<!-- Generated by graphviz version 2.40.1 (20161225.0304)
 -->
<!-- Title: dependencies Pages: 1 -->
<svg width="504pt" height="284pt"
 viewBox="0.00 0.00 504.00 284.00" xmlns="http://www.w3.org/2000/svg" xmlns:xlink="http://www.w3.org/1999/xlink">
<g id="graph0" class="graph" transform="scale(1 1) rotate(0) translate(4 280)">
<title>dependencies</title>
<polygon fill="#ffffff" stroke="transparent" points="-4,4 -4,-280 500,-280 500,4 -4,4"/>
<text text-anchor="start" x="227.0091" y="-42.4" font-family="sans-serif" font-weight="bold" font-size="14.00" fill="#000000">Legend</text>
<polygon fill="#ffffb3" stroke="transparent" points="14,-10 14,-30 34,-30 34,-10 14,-10"/>
<text text-anchor="start" x="37.629" y="-15.4" font-family="sans-serif" font-size="14.00" fill="#000000"> &#160;Declarations</text>
<polygon fill="#8dd3c7" stroke="transparent" points="127,-10 127,-30 147,-30 147,-10 127,-10"/>
<text text-anchor="start" x="150.7251" y="-15.4" font-family="sans-serif" font-size="14.00" fill="#000000"> &#160;Module</text>
<polygon fill="#80b1d3" stroke="transparent" points="213,-10 213,-30 233,-30 233,-10 213,-10"/>
<text text-anchor="start" x="236.7812" y="-15.4" font-family="sans-serif" font-size="14.00" fill="#000000"> &#160;Bootstrap</text>
<polygon fill="#fdb462" stroke="transparent" points="310,-10 310,-30 330,-30 330,-10 310,-10"/>
<text text-anchor="start" x="333.6732" y="-15.4" font-family="sans-serif" font-size="14.00" fill="#000000"> &#160;Providers</text>
<polygon fill="#fb8072" stroke="transparent" points="406,-10 406,-30 426,-30 426,-10 406,-10"/>
<text text-anchor="start" x="429.7258" y="-15.4" font-family="sans-serif" font-size="14.00" fill="#000000"> &#160;Exports</text>
<g id="clust1" class="cluster">
<title>cluster_CoreModule</title>
<polygon fill="none" stroke="#000000" stroke-dasharray="1,5" points="105,-70 105,-268 391,-268 391,-70 105,-70"/>
</g>
<g id="clust2" class="cluster">
<title>cluster_CoreModule_declarations</title>
<polygon fill="none" stroke="#000000" points="235,-78 235,-130 383,-130 383,-78 235,-78"/>
</g>
<g id="clust4" class="cluster">
<title>cluster_CoreModule_imports</title>
<polygon fill="none" stroke="#000000" points="113,-78 113,-130 227,-130 227,-78 113,-78"/>
</g>
<g id="clust5" class="cluster">
<title>cluster_CoreModule_exports</title>
<polygon fill="none" stroke="#000000" points="113,-208 113,-260 265,-260 265,-208 113,-208"/>
</g>
<!-- AppRootComponent -->
<g id="node1" class="node">
<title>AppRootComponent</title>
<polygon fill="#ffffb3" stroke="#000000" points="375.1666,-122 242.8334,-122 242.8334,-86 375.1666,-86 375.1666,-122"/>
<text text-anchor="middle" x="309" y="-99.8" font-family="Times,serif" font-size="14.00" fill="#000000">AppRootComponent</text>
</g>
<!-- CoreModule -->
<g id="node2" class="node">
<title>CoreModule</title>
<polygon fill="#8dd3c7" stroke="#000000" points="222.2619,-187 219.2619,-191 198.2619,-191 195.2619,-187 135.7381,-187 135.7381,-151 222.2619,-151 222.2619,-187"/>
<text text-anchor="middle" x="179" y="-164.8" font-family="Times,serif" font-size="14.00" fill="#000000">CoreModule</text>
</g>
<!-- AppRootComponent&#45;&gt;CoreModule -->
<g id="edge1" class="edge">
<title>AppRootComponent&#45;&gt;CoreModule</title>
<path fill="none" stroke="#000000" d="M249.875,-122.1061C249.875,-141.3391 249.875,-169 249.875,-169 249.875,-169 232.2699,-169 232.2699,-169"/>
<polygon fill="#000000" stroke="#000000" points="232.27,-165.5001 222.2699,-169 232.2699,-172.5001 232.27,-165.5001"/>
</g>
<!-- AppRootComponent  -->
<g id="node4" class="node">
<title>AppRootComponent </title>
<polygon fill="#fb8072" stroke="#000000" points="257.1663,-252 120.8337,-252 120.8337,-216 257.1663,-216 257.1663,-252"/>
<text text-anchor="middle" x="189" y="-229.8" font-family="Times,serif" font-size="14.00" fill="#000000">AppRootComponent </text>
</g>
<!-- CoreModule&#45;&gt;AppRootComponent  -->
<g id="edge4" class="edge">
<title>CoreModule&#45;&gt;AppRootComponent </title>
<path fill="none" stroke="#000000" stroke-dasharray="5,2" d="M179,-187.1061C179,-187.1061 179,-205.991 179,-205.991"/>
<polygon fill="#000000" stroke="#000000" points="175.5001,-205.9909 179,-215.991 182.5001,-205.991 175.5001,-205.9909"/>
</g>
<!-- RouterModule -->
<g id="node3" class="node">
<title>RouterModule</title>
<polygon fill="#8dd3c7" stroke="#000000" points="218.6528,-122 215.6528,-126 194.6528,-126 191.6528,-122 121.3472,-122 121.3472,-86 218.6528,-86 218.6528,-122"/>
<text text-anchor="middle" x="170" y="-99.8" font-family="Times,serif" font-size="14.00" fill="#000000">RouterModule</text>
</g>
<!-- RouterModule&#45;&gt;CoreModule -->
<g id="edge2" class="edge">
<title>RouterModule&#45;&gt;CoreModule</title>
<path fill="none" stroke="#000000" d="M163.3548,-122.1061C163.3548,-122.1061 163.3548,-140.991 163.3548,-140.991"/>
<polygon fill="#000000" stroke="#000000" points="159.8549,-140.9909 163.3548,-150.991 166.8549,-140.991 159.8549,-140.9909"/>
</g>
<!-- RouterModule&#45;&gt;CoreModule -->
<g id="edge3" class="edge">
<title>RouterModule&#45;&gt;CoreModule</title>
<path fill="none" stroke="#000000" d="M191.0905,-122.1061C191.0905,-122.1061 191.0905,-140.991 191.0905,-140.991"/>
<polygon fill="#000000" stroke="#000000" points="187.5906,-140.9909 191.0905,-150.991 194.5906,-140.991 187.5906,-140.9909"/>
</g>
</g>
</svg>
