<?xml version="1.0" encoding="UTF-8" standalone="no"?>
<!DOCTYPE svg PUBLIC "-//W3C//DTD SVG 1.1//EN"
 "http://www.w3.org/Graphics/SVG/1.1/DTD/svg11.dtd">
<!-- Generated by graphviz version 2.40.1 (20161225.0304)
 -->
<!-- Title: dependencies Pages: 1 -->
<svg width="1298pt" height="284pt"
 viewBox="0.00 0.00 1298.00 284.00" xmlns="http://www.w3.org/2000/svg" xmlns:xlink="http://www.w3.org/1999/xlink">
<g id="graph0" class="graph" transform="scale(1 1) rotate(0) translate(4 280)">
<title>dependencies</title>
<polygon fill="#ffffff" stroke="transparent" points="-4,4 -4,-280 1294,-280 1294,4 -4,4"/>
<text text-anchor="start" x="624.0091" y="-42.4" font-family="sans-serif" font-weight="bold" font-size="14.00" fill="#000000">Legend</text>
<polygon fill="#ffffb3" stroke="transparent" points="411,-10 411,-30 431,-30 431,-10 411,-10"/>
<text text-anchor="start" x="434.629" y="-15.4" font-family="sans-serif" font-size="14.00" fill="#000000"> &#160;Declarations</text>
<polygon fill="#8dd3c7" stroke="transparent" points="524,-10 524,-30 544,-30 544,-10 524,-10"/>
<text text-anchor="start" x="547.7251" y="-15.4" font-family="sans-serif" font-size="14.00" fill="#000000"> &#160;Module</text>
<polygon fill="#80b1d3" stroke="transparent" points="610,-10 610,-30 630,-30 630,-10 610,-10"/>
<text text-anchor="start" x="633.7812" y="-15.4" font-family="sans-serif" font-size="14.00" fill="#000000"> &#160;Bootstrap</text>
<polygon fill="#fdb462" stroke="transparent" points="707,-10 707,-30 727,-30 727,-10 707,-10"/>
<text text-anchor="start" x="730.6732" y="-15.4" font-family="sans-serif" font-size="14.00" fill="#000000"> &#160;Providers</text>
<polygon fill="#fb8072" stroke="transparent" points="803,-10 803,-30 823,-30 823,-10 803,-10"/>
<text text-anchor="start" x="826.7258" y="-15.4" font-family="sans-serif" font-size="14.00" fill="#000000"> &#160;Exports</text>
<g id="clust1" class="cluster">
<title>cluster_MaterialFieldsModule</title>
<polygon fill="none" stroke="#000000" stroke-dasharray="1,5" points="8,-70 8,-268 1282,-268 1282,-70 8,-70"/>
</g>
<g id="clust2" class="cluster">
<title>cluster_MaterialFieldsModule_declarations</title>
<polygon fill="none" stroke="#000000" points="136,-78 136,-130 1274,-130 1274,-78 136,-78"/>
</g>
<g id="clust10" class="cluster">
<title>cluster_MaterialFieldsModule_imports</title>
<polygon fill="none" stroke="#000000" points="16,-78 16,-130 128,-130 128,-78 16,-78"/>
</g>
<g id="clust11" class="cluster">
<title>cluster_MaterialFieldsModule_exports</title>
<polygon fill="none" stroke="#000000" points="64,-208 64,-260 1225,-260 1225,-208 64,-208"/>
</g>
<!-- FieldConfigurationComponent -->
<g id="node1" class="node">
<title>FieldConfigurationComponent</title>
<polygon fill="#ffffb3" stroke="#000000" points="1266.1553,-122 1077.8447,-122 1077.8447,-86 1266.1553,-86 1266.1553,-122"/>
<text text-anchor="middle" x="1172" y="-99.8" font-family="Times,serif" font-size="14.00" fill="#000000">FieldConfigurationComponent</text>
</g>
<!-- MaterialFieldsModule -->
<g id="node8" class="node">
<title>MaterialFieldsModule</title>
<polygon fill="#8dd3c7" stroke="#000000" points="711.6937,-187 708.6937,-191 687.6937,-191 684.6937,-187 570.3063,-187 570.3063,-151 711.6937,-151 711.6937,-187"/>
<text text-anchor="middle" x="641" y="-164.8" font-family="Times,serif" font-size="14.00" fill="#000000">MaterialFieldsModule</text>
</g>
<!-- FieldConfigurationComponent&#45;&gt;MaterialFieldsModule -->
<g id="edge1" class="edge">
<title>FieldConfigurationComponent&#45;&gt;MaterialFieldsModule</title>
<path fill="none" stroke="#000000" d="M1147.375,-122.2222C1147.375,-140.8285 1147.375,-167 1147.375,-167 1147.375,-167 721.6757,-167 721.6757,-167"/>
<polygon fill="#000000" stroke="#000000" points="721.6757,-163.5001 711.6757,-167 721.6756,-170.5001 721.6757,-163.5001"/>
</g>
<!-- FieldErrorDirective -->
<g id="node2" class="node">
<title>FieldErrorDirective</title>
<polygon fill="#ffffb3" stroke="#000000" points="1059.3962,-122 932.6038,-122 932.6038,-86 1059.3962,-86 1059.3962,-122"/>
<text text-anchor="middle" x="996" y="-99.8" font-family="Times,serif" font-size="14.00" fill="#000000">FieldErrorDirective</text>
</g>
<!-- FieldErrorDirective&#45;&gt;MaterialFieldsModule -->
<g id="edge2" class="edge">
<title>FieldErrorDirective&#45;&gt;MaterialFieldsModule</title>
<path fill="none" stroke="#000000" d="M969.875,-122.0336C969.875,-139.0597 969.875,-162 969.875,-162 969.875,-162 721.9561,-162 721.9561,-162"/>
<polygon fill="#000000" stroke="#000000" points="721.9561,-158.5001 711.9561,-162 721.956,-165.5001 721.9561,-158.5001"/>
</g>
<!-- FieldLabelDirective -->
<g id="node3" class="node">
<title>FieldLabelDirective</title>
<polygon fill="#ffffb3" stroke="#000000" points="914.2339,-122 785.7661,-122 785.7661,-86 914.2339,-86 914.2339,-122"/>
<text text-anchor="middle" x="850" y="-99.8" font-family="Times,serif" font-size="14.00" fill="#000000">FieldLabelDirective</text>
</g>
<!-- FieldLabelDirective&#45;&gt;MaterialFieldsModule -->
<g id="edge3" class="edge">
<title>FieldLabelDirective&#45;&gt;MaterialFieldsModule</title>
<path fill="none" stroke="#000000" d="M822.375,-122.2396C822.375,-137.5706 822.375,-157 822.375,-157 822.375,-157 721.6437,-157 721.6437,-157"/>
<polygon fill="#000000" stroke="#000000" points="721.6437,-153.5001 711.6437,-157 721.6436,-160.5001 721.6437,-153.5001"/>
</g>
<!-- FieldOutletDirective -->
<g id="node4" class="node">
<title>FieldOutletDirective</title>
<polygon fill="#ffffb3" stroke="#000000" points="767.8543,-122 636.1457,-122 636.1457,-86 767.8543,-86 767.8543,-122"/>
<text text-anchor="middle" x="702" y="-99.8" font-family="Times,serif" font-size="14.00" fill="#000000">FieldOutletDirective</text>
</g>
<!-- FieldOutletDirective&#45;&gt;MaterialFieldsModule -->
<g id="edge4" class="edge">
<title>FieldOutletDirective&#45;&gt;MaterialFieldsModule</title>
<path fill="none" stroke="#000000" d="M673.8349,-122.1061C673.8349,-122.1061 673.8349,-140.991 673.8349,-140.991"/>
<polygon fill="#000000" stroke="#000000" points="670.3349,-140.9909 673.8349,-150.991 677.3349,-140.991 670.3349,-140.9909"/>
</g>
<!-- FormComponent -->
<g id="node5" class="node">
<title>FormComponent</title>
<polygon fill="#ffffb3" stroke="#000000" points="617.6667,-122 506.3333,-122 506.3333,-86 617.6667,-86 617.6667,-122"/>
<text text-anchor="middle" x="562" y="-99.8" font-family="Times,serif" font-size="14.00" fill="#000000">FormComponent</text>
</g>
<!-- FormComponent&#45;&gt;MaterialFieldsModule -->
<g id="edge5" class="edge">
<title>FormComponent&#45;&gt;MaterialFieldsModule</title>
<path fill="none" stroke="#000000" d="M594.1182,-122.1061C594.1182,-122.1061 594.1182,-140.991 594.1182,-140.991"/>
<polygon fill="#000000" stroke="#000000" points="590.6182,-140.9909 594.1182,-150.991 597.6182,-140.991 590.6182,-140.9909"/>
</g>
<!-- FormSubmitDirective -->
<g id="node6" class="node">
<title>FormSubmitDirective</title>
<polygon fill="#ffffb3" stroke="#000000" points="488.3711,-122 349.6289,-122 349.6289,-86 488.3711,-86 488.3711,-122"/>
<text text-anchor="middle" x="419" y="-99.8" font-family="Times,serif" font-size="14.00" fill="#000000">FormSubmitDirective</text>
</g>
<!-- FormSubmitDirective&#45;&gt;MaterialFieldsModule -->
<g id="edge6" class="edge">
<title>FormSubmitDirective&#45;&gt;MaterialFieldsModule</title>
<path fill="none" stroke="#000000" d="M464.4262,-122.2396C464.4262,-137.5706 464.4262,-157 464.4262,-157 464.4262,-157 560.1981,-157 560.1981,-157"/>
<polygon fill="#000000" stroke="#000000" points="560.1981,-160.5001 570.1981,-157 560.1981,-153.5001 560.1981,-160.5001"/>
</g>
<!-- OverrideFieldNamedDirective -->
<g id="node7" class="node">
<title>OverrideFieldNamedDirective</title>
<polygon fill="#ffffb3" stroke="#000000" points="331.5352,-122 144.4648,-122 144.4648,-86 331.5352,-86 331.5352,-122"/>
<text text-anchor="middle" x="238" y="-99.8" font-family="Times,serif" font-size="14.00" fill="#000000">OverrideFieldNamedDirective</text>
</g>
<!-- OverrideFieldNamedDirective&#45;&gt;MaterialFieldsModule -->
<g id="edge7" class="edge">
<title>OverrideFieldNamedDirective&#45;&gt;MaterialFieldsModule</title>
<path fill="none" stroke="#000000" d="M305.6661,-122.0336C305.6661,-139.0597 305.6661,-162 305.6661,-162 305.6661,-162 560.294,-162 560.294,-162"/>
<polygon fill="#000000" stroke="#000000" points="560.2941,-165.5001 570.294,-162 560.294,-158.5001 560.2941,-165.5001"/>
</g>
<!-- FieldConfigurationComponent  -->
<g id="node10" class="node">
<title>FieldConfigurationComponent </title>
<polygon fill="#fb8072" stroke="#000000" points="1217.1551,-252 1024.8449,-252 1024.8449,-216 1217.1551,-216 1217.1551,-252"/>
<text text-anchor="middle" x="1121" y="-229.8" font-family="Times,serif" font-size="14.00" fill="#000000">FieldConfigurationComponent </text>
</g>
<!-- MaterialFieldsModule&#45;&gt;FieldConfigurationComponent  -->
<g id="edge9" class="edge">
<title>MaterialFieldsModule&#45;&gt;FieldConfigurationComponent </title>
<path fill="none" stroke="#000000" stroke-dasharray="5,2" d="M711.7783,-172C826.9147,-172 1042.0602,-172 1042.0602,-172 1042.0602,-172 1042.0602,-205.7333 1042.0602,-205.7333"/>
<polygon fill="#000000" stroke="#000000" points="1038.5602,-205.7333 1042.0602,-215.7333 1045.5602,-205.7333 1038.5602,-205.7333"/>
</g>
<!-- FieldErrorDirective  -->
<g id="node11" class="node">
<title>FieldErrorDirective </title>
<polygon fill="#fb8072" stroke="#000000" points="1006.8956,-252 877.1044,-252 877.1044,-216 1006.8956,-216 1006.8956,-252"/>
<text text-anchor="middle" x="942" y="-229.8" font-family="Times,serif" font-size="14.00" fill="#000000">FieldErrorDirective </text>
</g>
<!-- MaterialFieldsModule&#45;&gt;FieldErrorDirective  -->
<g id="edge10" class="edge">
<title>MaterialFieldsModule&#45;&gt;FieldErrorDirective </title>
<path fill="none" stroke="#000000" stroke-dasharray="5,2" d="M711.6125,-177C786.9925,-177 895.7095,-177 895.7095,-177 895.7095,-177 895.7095,-205.9648 895.7095,-205.9648"/>
<polygon fill="#000000" stroke="#000000" points="892.2096,-205.9648 895.7095,-215.9648 899.2096,-205.9649 892.2096,-205.9648"/>
</g>
<!-- FieldLabelDirective  -->
<g id="node12" class="node">
<title>FieldLabelDirective </title>
<polygon fill="#fb8072" stroke="#000000" points="859.2338,-252 726.7662,-252 726.7662,-216 859.2338,-216 859.2338,-252"/>
<text text-anchor="middle" x="793" y="-229.8" font-family="Times,serif" font-size="14.00" fill="#000000">FieldLabelDirective </text>
</g>
<!-- MaterialFieldsModule&#45;&gt;FieldLabelDirective  -->
<g id="edge11" class="edge">
<title>MaterialFieldsModule&#45;&gt;FieldLabelDirective </title>
<path fill="none" stroke="#000000" stroke-dasharray="5,2" d="M711.6778,-182C731.331,-182 747.4052,-182 747.4052,-182 747.4052,-182 747.4052,-205.8129 747.4052,-205.8129"/>
<polygon fill="#000000" stroke="#000000" points="743.9052,-205.8129 747.4052,-215.8129 750.9052,-205.813 743.9052,-205.8129"/>
</g>
<!-- FieldOutletDirective  -->
<g id="node13" class="node">
<title>FieldOutletDirective </title>
<polygon fill="#fb8072" stroke="#000000" points="708.8547,-252 573.1453,-252 573.1453,-216 708.8547,-216 708.8547,-252"/>
<text text-anchor="middle" x="641" y="-229.8" font-family="Times,serif" font-size="14.00" fill="#000000">FieldOutletDirective </text>
</g>
<!-- MaterialFieldsModule&#45;&gt;FieldOutletDirective  -->
<g id="edge12" class="edge">
<title>MaterialFieldsModule&#45;&gt;FieldOutletDirective </title>
<path fill="none" stroke="#000000" stroke-dasharray="5,2" d="M641,-187.1061C641,-187.1061 641,-205.991 641,-205.991"/>
<polygon fill="#000000" stroke="#000000" points="637.5001,-205.9909 641,-215.991 644.5001,-205.991 637.5001,-205.9909"/>
</g>
<!-- FormComponent  -->
<g id="node14" class="node">
<title>FormComponent </title>
<polygon fill="#fb8072" stroke="#000000" points="555.6663,-252 440.3337,-252 440.3337,-216 555.6663,-216 555.6663,-252"/>
<text text-anchor="middle" x="498" y="-229.8" font-family="Times,serif" font-size="14.00" fill="#000000">FormComponent </text>
</g>
<!-- MaterialFieldsModule&#45;&gt;FormComponent  -->
<g id="edge13" class="edge">
<title>MaterialFieldsModule&#45;&gt;FormComponent </title>
<path fill="none" stroke="#000000" stroke-dasharray="5,2" d="M570.3216,-182C548.8756,-182 530.875,-182 530.875,-182 530.875,-182 530.875,-205.8129 530.875,-205.8129"/>
<polygon fill="#000000" stroke="#000000" points="527.3751,-205.8129 530.875,-215.8129 534.3751,-205.813 527.3751,-205.8129"/>
</g>
<!-- FormSubmitDirective  -->
<g id="node15" class="node">
<title>FormSubmitDirective </title>
<polygon fill="#fb8072" stroke="#000000" points="422.3715,-252 279.6285,-252 279.6285,-216 422.3715,-216 422.3715,-252"/>
<text text-anchor="middle" x="351" y="-229.8" font-family="Times,serif" font-size="14.00" fill="#000000">FormSubmitDirective </text>
</g>
<!-- MaterialFieldsModule&#45;&gt;FormSubmitDirective  -->
<g id="edge14" class="edge">
<title>MaterialFieldsModule&#45;&gt;FormSubmitDirective </title>
<path fill="none" stroke="#000000" stroke-dasharray="5,2" d="M570.2723,-177C494.7693,-177 385.875,-177 385.875,-177 385.875,-177 385.875,-205.9648 385.875,-205.9648"/>
<polygon fill="#000000" stroke="#000000" points="382.3751,-205.9648 385.875,-215.9648 389.3751,-205.9649 382.3751,-205.9648"/>
</g>
<!-- OverrideFieldNamedDirective  -->
<g id="node16" class="node">
<title>OverrideFieldNamedDirective </title>
<polygon fill="#fb8072" stroke="#000000" points="262.0358,-252 71.9642,-252 71.9642,-216 262.0358,-216 262.0358,-252"/>
<text text-anchor="middle" x="167" y="-229.8" font-family="Times,serif" font-size="14.00" fill="#000000">OverrideFieldNamedDirective </text>
</g>
<!-- MaterialFieldsModule&#45;&gt;OverrideFieldNamedDirective  -->
<g id="edge15" class="edge">
<title>MaterialFieldsModule&#45;&gt;OverrideFieldNamedDirective </title>
<path fill="none" stroke="#000000" stroke-dasharray="5,2" d="M570.2016,-172C446.3442,-172 203.375,-172 203.375,-172 203.375,-172 203.375,-205.7333 203.375,-205.7333"/>
<polygon fill="#000000" stroke="#000000" points="199.8751,-205.7333 203.375,-215.7333 206.8751,-205.7333 199.8751,-205.7333"/>
</g>
<!-- FormsModule -->
<g id="node9" class="node">
<title>FormsModule</title>
<polygon fill="#8dd3c7" stroke="#000000" points="119.8288,-122 116.8288,-126 95.8288,-126 92.8288,-122 24.1712,-122 24.1712,-86 119.8288,-86 119.8288,-122"/>
<text text-anchor="middle" x="72" y="-99.8" font-family="Times,serif" font-size="14.00" fill="#000000">FormsModule</text>
</g>
<!-- FormsModule&#45;&gt;MaterialFieldsModule -->
<g id="edge8" class="edge">
<title>FormsModule&#45;&gt;MaterialFieldsModule</title>
<path fill="none" stroke="#000000" d="M95.6983,-122.2222C95.6983,-140.8285 95.6983,-167 95.6983,-167 95.6983,-167 560.2704,-167 560.2704,-167"/>
<polygon fill="#000000" stroke="#000000" points="560.2704,-170.5001 570.2704,-167 560.2703,-163.5001 560.2704,-170.5001"/>
</g>
</g>
</svg>
