<?xml version="1.0" encoding="UTF-8" standalone="no"?>
<!DOCTYPE svg PUBLIC "-//W3C//DTD SVG 1.1//EN"
 "http://www.w3.org/Graphics/SVG/1.1/DTD/svg11.dtd">
<!-- Generated by graphviz version 2.40.1 (20161225.0304)
 -->
<!-- Title: dependencies Pages: 1 -->
<svg width="504pt" height="211pt"
 viewBox="0.00 0.00 504.00 211.00" xmlns="http://www.w3.org/2000/svg" xmlns:xlink="http://www.w3.org/1999/xlink">
<g id="graph0" class="graph" transform="scale(1 1) rotate(0) translate(4 207)">
<title>dependencies</title>
<polygon fill="#ffffff" stroke="transparent" points="-4,4 -4,-207 500,-207 500,4 -4,4"/>
<text text-anchor="start" x="227.0091" y="-42.4" font-family="sans-serif" font-weight="bold" font-size="14.00" fill="#000000">Legend</text>
<polygon fill="#ffffb3" stroke="transparent" points="14,-10 14,-30 34,-30 34,-10 14,-10"/>
<text text-anchor="start" x="37.629" y="-15.4" font-family="sans-serif" font-size="14.00" fill="#000000"> &#160;Declarations</text>
<polygon fill="#8dd3c7" stroke="transparent" points="127,-10 127,-30 147,-30 147,-10 127,-10"/>
<text text-anchor="start" x="150.7251" y="-15.4" font-family="sans-serif" font-size="14.00" fill="#000000"> &#160;Module</text>
<polygon fill="#80b1d3" stroke="transparent" points="213,-10 213,-30 233,-30 233,-10 213,-10"/>
<text text-anchor="start" x="236.7812" y="-15.4" font-family="sans-serif" font-size="14.00" fill="#000000"> &#160;Bootstrap</text>
<polygon fill="#fdb462" stroke="transparent" points="310,-10 310,-30 330,-30 330,-10 310,-10"/>
<text text-anchor="start" x="333.6732" y="-15.4" font-family="sans-serif" font-size="14.00" fill="#000000"> &#160;Providers</text>
<polygon fill="#fb8072" stroke="transparent" points="406,-10 406,-30 426,-30 426,-10 406,-10"/>
<text text-anchor="start" x="429.7258" y="-15.4" font-family="sans-serif" font-size="14.00" fill="#000000"> &#160;Exports</text>
<g id="clust1" class="cluster">
<title>cluster_HomeModule</title>
<polygon fill="none" stroke="#000000" stroke-dasharray="1,5" points="43.5,-70 43.5,-195 452.5,-195 452.5,-70 43.5,-70"/>
</g>
<g id="clust2" class="cluster">
<title>cluster_HomeModule_declarations</title>
<polygon fill="none" stroke="#000000" points="286.5,-78 286.5,-130 444.5,-130 444.5,-78 286.5,-78"/>
</g>
<g id="clust4" class="cluster">
<title>cluster_HomeModule_imports</title>
<polygon fill="none" stroke="#000000" points="51.5,-78 51.5,-130 278.5,-130 278.5,-78 51.5,-78"/>
</g>
<!-- HomePageComponent -->
<g id="node1" class="node">
<title>HomePageComponent</title>
<polygon fill="#ffffb3" stroke="#000000" points="436.7562,-122 294.2438,-122 294.2438,-86 436.7562,-86 436.7562,-122"/>
<text text-anchor="middle" x="365.5" y="-99.8" font-family="Times,serif" font-size="14.00" fill="#000000">HomePageComponent</text>
</g>
<!-- HomeModule -->
<g id="node2" class="node">
<title>HomeModule</title>
<polygon fill="#8dd3c7" stroke="#000000" points="269.2619,-187 266.2619,-191 245.2619,-191 242.2619,-187 175.7381,-187 175.7381,-151 269.2619,-151 269.2619,-187"/>
<text text-anchor="middle" x="222.5" y="-164.8" font-family="Times,serif" font-size="14.00" fill="#000000">HomeModule</text>
</g>
<!-- HomePageComponent&#45;&gt;HomeModule -->
<g id="edge1" class="edge">
<title>HomePageComponent&#45;&gt;HomeModule</title>
<path fill="none" stroke="#000000" d="M365.5,-122.1061C365.5,-141.3391 365.5,-169 365.5,-169 365.5,-169 279.3235,-169 279.3235,-169"/>
<polygon fill="#000000" stroke="#000000" points="279.3236,-165.5001 269.3235,-169 279.3235,-172.5001 279.3236,-165.5001"/>
</g>
<!-- FormsModule -->
<g id="node3" class="node">
<title>FormsModule</title>
<polygon fill="#8dd3c7" stroke="#000000" points="270.3288,-122 267.3288,-126 246.3288,-126 243.3288,-122 174.6712,-122 174.6712,-86 270.3288,-86 270.3288,-122"/>
<text text-anchor="middle" x="222.5" y="-99.8" font-family="Times,serif" font-size="14.00" fill="#000000">FormsModule</text>
</g>
<!-- FormsModule&#45;&gt;HomeModule -->
<g id="edge2" class="edge">
<title>FormsModule&#45;&gt;HomeModule</title>
<path fill="none" stroke="#000000" d="M222.5,-122.1061C222.5,-122.1061 222.5,-140.991 222.5,-140.991"/>
<polygon fill="#000000" stroke="#000000" points="219.0001,-140.9909 222.5,-150.991 226.0001,-140.991 219.0001,-140.9909"/>
</g>
<!-- RouterModule -->
<g id="node4" class="node">
<title>RouterModule</title>
<polygon fill="#8dd3c7" stroke="#000000" points="157.1528,-122 154.1528,-126 133.1528,-126 130.1528,-122 59.8472,-122 59.8472,-86 157.1528,-86 157.1528,-122"/>
<text text-anchor="middle" x="108.5" y="-99.8" font-family="Times,serif" font-size="14.00" fill="#000000">RouterModule</text>
</g>
<!-- RouterModule&#45;&gt;HomeModule -->
<g id="edge3" class="edge">
<title>RouterModule&#45;&gt;HomeModule</title>
<path fill="none" stroke="#000000" d="M108.5,-122.1061C108.5,-141.3391 108.5,-169 108.5,-169 108.5,-169 165.4737,-169 165.4737,-169"/>
<polygon fill="#000000" stroke="#000000" points="165.4737,-172.5001 175.4737,-169 165.4736,-165.5001 165.4737,-172.5001"/>
</g>
</g>
</svg>
