<?xml version="1.0" encoding="UTF-8" standalone="no"?>
<!DOCTYPE svg PUBLIC "-//W3C//DTD SVG 1.1//EN"
 "http://www.w3.org/Graphics/SVG/1.1/DTD/svg11.dtd">
<!-- Generated by graphviz version 2.40.1 (20161225.0304)
 -->
<!-- Title: dependencies Pages: 1 -->
<svg width="705pt" height="284pt"
 viewBox="0.00 0.00 705.00 284.00" xmlns="http://www.w3.org/2000/svg" xmlns:xlink="http://www.w3.org/1999/xlink">
<g id="graph0" class="graph" transform="scale(1 1) rotate(0) translate(4 280)">
<title>dependencies</title>
<polygon fill="#ffffff" stroke="transparent" points="-4,4 -4,-280 701,-280 701,4 -4,4"/>
<text text-anchor="start" x="327.5091" y="-42.4" font-family="sans-serif" font-weight="bold" font-size="14.00" fill="#000000">Legend</text>
<polygon fill="#ffffb3" stroke="transparent" points="114.5,-10 114.5,-30 134.5,-30 134.5,-10 114.5,-10"/>
<text text-anchor="start" x="138.129" y="-15.4" font-family="sans-serif" font-size="14.00" fill="#000000"> &#160;Declarations</text>
<polygon fill="#8dd3c7" stroke="transparent" points="227.5,-10 227.5,-30 247.5,-30 247.5,-10 227.5,-10"/>
<text text-anchor="start" x="251.2251" y="-15.4" font-family="sans-serif" font-size="14.00" fill="#000000"> &#160;Module</text>
<polygon fill="#80b1d3" stroke="transparent" points="313.5,-10 313.5,-30 333.5,-30 333.5,-10 313.5,-10"/>
<text text-anchor="start" x="337.2812" y="-15.4" font-family="sans-serif" font-size="14.00" fill="#000000"> &#160;Bootstrap</text>
<polygon fill="#fdb462" stroke="transparent" points="410.5,-10 410.5,-30 430.5,-30 430.5,-10 410.5,-10"/>
<text text-anchor="start" x="434.1732" y="-15.4" font-family="sans-serif" font-size="14.00" fill="#000000"> &#160;Providers</text>
<polygon fill="#fb8072" stroke="transparent" points="506.5,-10 506.5,-30 526.5,-30 526.5,-10 506.5,-10"/>
<text text-anchor="start" x="530.2258" y="-15.4" font-family="sans-serif" font-size="14.00" fill="#000000"> &#160;Exports</text>
<g id="clust1" class="cluster">
<title>cluster_AppModule</title>
<polygon fill="none" stroke="#000000" stroke-dasharray="1,5" points="8,-70 8,-268 689,-268 689,-70 8,-70"/>
</g>
<g id="clust3" class="cluster">
<title>cluster_AppModule_imports</title>
<polygon fill="none" stroke="#000000" points="16,-78 16,-130 681,-130 681,-78 16,-78"/>
</g>
<g id="clust5" class="cluster">
<title>cluster_AppModule_bootstrap</title>
<polygon fill="none" stroke="#000000" points="301,-208 301,-260 453,-260 453,-208 301,-208"/>
</g>
<!-- CoreModule -->
<g id="node1" class="node">
<title>CoreModule</title>
<polygon fill="#8dd3c7" stroke="#000000" points="673.2619,-122 670.2619,-126 649.2619,-126 646.2619,-122 586.7381,-122 586.7381,-86 673.2619,-86 673.2619,-122"/>
<text text-anchor="middle" x="630" y="-99.8" font-family="Times,serif" font-size="14.00" fill="#000000">CoreModule</text>
</g>
<!-- AppModule -->
<g id="node6" class="node">
<title>AppModule</title>
<polygon fill="#8dd3c7" stroke="#000000" points="418.6571,-187 415.6571,-191 394.6571,-191 391.6571,-187 335.3429,-187 335.3429,-151 418.6571,-151 418.6571,-187"/>
<text text-anchor="middle" x="377" y="-164.8" font-family="Times,serif" font-size="14.00" fill="#000000">AppModule</text>
</g>
<!-- CoreModule&#45;&gt;AppModule -->
<g id="edge1" class="edge">
<title>CoreModule&#45;&gt;AppModule</title>
<path fill="none" stroke="#000000" d="M630,-122.2843C630,-143.3211 630,-175 630,-175 630,-175 428.7778,-175 428.7778,-175"/>
<polygon fill="#000000" stroke="#000000" points="428.7778,-171.5001 418.7778,-175 428.7778,-178.5001 428.7778,-171.5001"/>
</g>
<!-- FormsModule -->
<g id="node2" class="node">
<title>FormsModule</title>
<polygon fill="#8dd3c7" stroke="#000000" points="568.8288,-122 565.8288,-126 544.8288,-126 541.8288,-122 473.1712,-122 473.1712,-86 568.8288,-86 568.8288,-122"/>
<text text-anchor="middle" x="521" y="-99.8" font-family="Times,serif" font-size="14.00" fill="#000000">FormsModule</text>
</g>
<!-- FormsModule&#45;&gt;AppModule -->
<g id="edge2" class="edge">
<title>FormsModule&#45;&gt;AppModule</title>
<path fill="none" stroke="#000000" d="M521,-122.0225C521,-139.3734 521,-163 521,-163 521,-163 429.0379,-163 429.0379,-163"/>
<polygon fill="#000000" stroke="#000000" points="429.0379,-159.5001 419.0379,-163 429.0378,-166.5001 429.0379,-159.5001"/>
</g>
<!-- MaterialDevpageModule -->
<g id="node3" class="node">
<title>MaterialDevpageModule</title>
<polygon fill="#8dd3c7" stroke="#000000" points="455.2212,-122 452.2212,-126 431.2212,-126 428.2212,-122 298.7788,-122 298.7788,-86 455.2212,-86 455.2212,-122"/>
<text text-anchor="middle" x="377" y="-99.8" font-family="Times,serif" font-size="14.00" fill="#000000">MaterialDevpageModule</text>
</g>
<!-- MaterialDevpageModule&#45;&gt;AppModule -->
<g id="edge3" class="edge">
<title>MaterialDevpageModule&#45;&gt;AppModule</title>
<path fill="none" stroke="#000000" d="M377,-122.1061C377,-122.1061 377,-140.991 377,-140.991"/>
<polygon fill="#000000" stroke="#000000" points="373.5001,-140.9909 377,-150.991 380.5001,-140.991 373.5001,-140.9909"/>
</g>
<!-- MaterialFieldsModule -->
<g id="node4" class="node">
<title>MaterialFieldsModule</title>
<polygon fill="#8dd3c7" stroke="#000000" points="280.6937,-122 277.6937,-126 256.6937,-126 253.6937,-122 139.3063,-122 139.3063,-86 280.6937,-86 280.6937,-122"/>
<text text-anchor="middle" x="210" y="-99.8" font-family="Times,serif" font-size="14.00" fill="#000000">MaterialFieldsModule</text>
</g>
<!-- MaterialFieldsModule&#45;&gt;AppModule -->
<g id="edge4" class="edge">
<title>MaterialFieldsModule&#45;&gt;AppModule</title>
<path fill="none" stroke="#000000" d="M210,-122.0225C210,-139.3734 210,-163 210,-163 210,-163 325.2896,-163 325.2896,-163"/>
<polygon fill="#000000" stroke="#000000" points="325.2897,-166.5001 335.2896,-163 325.2896,-159.5001 325.2897,-166.5001"/>
</g>
<!-- RouterModule -->
<g id="node5" class="node">
<title>RouterModule</title>
<polygon fill="#8dd3c7" stroke="#000000" points="121.6528,-122 118.6528,-126 97.6528,-126 94.6528,-122 24.3472,-122 24.3472,-86 121.6528,-86 121.6528,-122"/>
<text text-anchor="middle" x="73" y="-99.8" font-family="Times,serif" font-size="14.00" fill="#000000">RouterModule</text>
</g>
<!-- RouterModule&#45;&gt;AppModule -->
<g id="edge5" class="edge">
<title>RouterModule&#45;&gt;AppModule</title>
<path fill="none" stroke="#000000" d="M73,-122.2843C73,-143.3211 73,-175 73,-175 73,-175 325.0493,-175 325.0493,-175"/>
<polygon fill="#000000" stroke="#000000" points="325.0493,-178.5001 335.0493,-175 325.0492,-171.5001 325.0493,-178.5001"/>
</g>
<!-- AppRootComponent  -->
<g id="node7" class="node">
<title>AppRootComponent </title>
<polygon fill="#80b1d3" stroke="#000000" points="445.1663,-252 308.8337,-252 308.8337,-216 445.1663,-216 445.1663,-252"/>
<text text-anchor="middle" x="377" y="-229.8" font-family="Times,serif" font-size="14.00" fill="#000000">AppRootComponent </text>
</g>
<!-- AppModule&#45;&gt;AppRootComponent  -->
<g id="edge6" class="edge">
<title>AppModule&#45;&gt;AppRootComponent </title>
<path fill="none" stroke="#000000" stroke-dasharray="1,5" d="M377,-187.1061C377,-187.1061 377,-205.991 377,-205.991"/>
<polygon fill="#000000" stroke="#000000" points="373.5001,-205.9909 377,-215.991 380.5001,-205.991 373.5001,-205.9909"/>
</g>
</g>
</svg>
