<?xml version="1.0" encoding="UTF-8" standalone="no"?>
<!DOCTYPE svg PUBLIC "-//W3C//DTD SVG 1.1//EN"
 "http://www.w3.org/Graphics/SVG/1.1/DTD/svg11.dtd">
<!-- Generated by graphviz version 2.40.1 (20161225.0304)
 -->
<!-- Title: dependencies Pages: 1 -->
<svg width="925pt" height="284pt"
 viewBox="0.00 0.00 925.00 284.00" xmlns="http://www.w3.org/2000/svg" xmlns:xlink="http://www.w3.org/1999/xlink">
<g id="graph0" class="graph" transform="scale(1 1) rotate(0) translate(4 280)">
<title>dependencies</title>
<polygon fill="#ffffff" stroke="transparent" points="-4,4 -4,-280 921,-280 921,4 -4,4"/>
<text text-anchor="start" x="437.5091" y="-42.4" font-family="sans-serif" font-weight="bold" font-size="14.00" fill="#000000">Legend</text>
<polygon fill="#ffffb3" stroke="transparent" points="224.5,-10 224.5,-30 244.5,-30 244.5,-10 224.5,-10"/>
<text text-anchor="start" x="248.129" y="-15.4" font-family="sans-serif" font-size="14.00" fill="#000000"> &#160;Declarations</text>
<polygon fill="#8dd3c7" stroke="transparent" points="337.5,-10 337.5,-30 357.5,-30 357.5,-10 337.5,-10"/>
<text text-anchor="start" x="361.2251" y="-15.4" font-family="sans-serif" font-size="14.00" fill="#000000"> &#160;Module</text>
<polygon fill="#80b1d3" stroke="transparent" points="423.5,-10 423.5,-30 443.5,-30 443.5,-10 423.5,-10"/>
<text text-anchor="start" x="447.2812" y="-15.4" font-family="sans-serif" font-size="14.00" fill="#000000"> &#160;Bootstrap</text>
<polygon fill="#fdb462" stroke="transparent" points="520.5,-10 520.5,-30 540.5,-30 540.5,-10 520.5,-10"/>
<text text-anchor="start" x="544.1732" y="-15.4" font-family="sans-serif" font-size="14.00" fill="#000000"> &#160;Providers</text>
<polygon fill="#fb8072" stroke="transparent" points="616.5,-10 616.5,-30 636.5,-30 636.5,-10 616.5,-10"/>
<text text-anchor="start" x="640.2258" y="-15.4" font-family="sans-serif" font-size="14.00" fill="#000000"> &#160;Exports</text>
<g id="clust1" class="cluster">
<title>cluster_MaterialDevpageModule</title>
<polygon fill="none" stroke="#000000" stroke-dasharray="1,5" points="8,-70 8,-268 909,-268 909,-70 8,-70"/>
</g>
<g id="clust2" class="cluster">
<title>cluster_MaterialDevpageModule_declarations</title>
<polygon fill="none" stroke="#000000" points="410,-78 410,-130 901,-130 901,-78 410,-78"/>
</g>
<g id="clust6" class="cluster">
<title>cluster_MaterialDevpageModule_imports</title>
<polygon fill="none" stroke="#000000" points="16,-78 16,-130 402,-130 402,-78 16,-78"/>
</g>
<g id="clust7" class="cluster">
<title>cluster_MaterialDevpageModule_exports</title>
<polygon fill="none" stroke="#000000" points="344,-208 344,-260 494,-260 494,-208 344,-208"/>
</g>
<!-- ActionDialogComponent -->
<g id="node1" class="node">
<title>ActionDialogComponent</title>
<polygon fill="#ffffb3" stroke="#000000" points="892.5379,-122 735.4621,-122 735.4621,-86 892.5379,-86 892.5379,-122"/>
<text text-anchor="middle" x="814" y="-99.8" font-family="Times,serif" font-size="14.00" fill="#000000">ActionDialogComponent</text>
</g>
<!-- MaterialDevpageModule -->
<g id="node4" class="node">
<title>MaterialDevpageModule</title>
<polygon fill="#8dd3c7" stroke="#000000" points="497.2212,-187 494.2212,-191 473.2212,-191 470.2212,-187 340.7788,-187 340.7788,-151 497.2212,-151 497.2212,-187"/>
<text text-anchor="middle" x="419" y="-164.8" font-family="Times,serif" font-size="14.00" fill="#000000">MaterialDevpageModule</text>
</g>
<!-- ActionDialogComponent&#45;&gt;MaterialDevpageModule -->
<g id="edge1" class="edge">
<title>ActionDialogComponent&#45;&gt;MaterialDevpageModule</title>
<path fill="none" stroke="#000000" d="M814,-122.2843C814,-143.3211 814,-175 814,-175 814,-175 507.5116,-175 507.5116,-175"/>
<polygon fill="#000000" stroke="#000000" points="507.5116,-171.5001 497.5116,-175 507.5115,-178.5001 507.5116,-171.5001"/>
</g>
<!-- DevpageComponent -->
<g id="node2" class="node">
<title>DevpageComponent</title>
<polygon fill="#ffffb3" stroke="#000000" points="717.5828,-122 586.4172,-122 586.4172,-86 717.5828,-86 717.5828,-122"/>
<text text-anchor="middle" x="652" y="-99.8" font-family="Times,serif" font-size="14.00" fill="#000000">DevpageComponent</text>
</g>
<!-- DevpageComponent&#45;&gt;MaterialDevpageModule -->
<g id="edge2" class="edge">
<title>DevpageComponent&#45;&gt;MaterialDevpageModule</title>
<path fill="none" stroke="#000000" d="M652,-122.0225C652,-139.3734 652,-163 652,-163 652,-163 507.2338,-163 507.2338,-163"/>
<polygon fill="#000000" stroke="#000000" points="507.2338,-159.5001 497.2338,-163 507.2338,-166.5001 507.2338,-159.5001"/>
</g>
<!-- EntityOutletComponent -->
<g id="node3" class="node">
<title>EntityOutletComponent</title>
<polygon fill="#ffffb3" stroke="#000000" points="568.0505,-122 417.9495,-122 417.9495,-86 568.0505,-86 568.0505,-122"/>
<text text-anchor="middle" x="493" y="-99.8" font-family="Times,serif" font-size="14.00" fill="#000000">EntityOutletComponent</text>
</g>
<!-- EntityOutletComponent&#45;&gt;MaterialDevpageModule -->
<g id="edge3" class="edge">
<title>EntityOutletComponent&#45;&gt;MaterialDevpageModule</title>
<path fill="none" stroke="#000000" d="M457.5428,-122.1061C457.5428,-122.1061 457.5428,-140.991 457.5428,-140.991"/>
<polygon fill="#000000" stroke="#000000" points="454.0429,-140.9909 457.5428,-150.991 461.0429,-140.991 454.0429,-140.9909"/>
</g>
<!-- DevpageComponent  -->
<g id="node8" class="node">
<title>DevpageComponent </title>
<polygon fill="#fb8072" stroke="#000000" points="486.0834,-252 351.9166,-252 351.9166,-216 486.0834,-216 486.0834,-252"/>
<text text-anchor="middle" x="419" y="-229.8" font-family="Times,serif" font-size="14.00" fill="#000000">DevpageComponent </text>
</g>
<!-- MaterialDevpageModule&#45;&gt;DevpageComponent  -->
<g id="edge7" class="edge">
<title>MaterialDevpageModule&#45;&gt;DevpageComponent </title>
<path fill="none" stroke="#000000" stroke-dasharray="5,2" d="M419,-187.1061C419,-187.1061 419,-205.991 419,-205.991"/>
<polygon fill="#000000" stroke="#000000" points="415.5001,-205.9909 419,-215.991 422.5001,-205.991 415.5001,-205.9909"/>
</g>
<!-- FormsModule -->
<g id="node5" class="node">
<title>FormsModule</title>
<polygon fill="#8dd3c7" stroke="#000000" points="393.8288,-122 390.8288,-126 369.8288,-126 366.8288,-122 298.1712,-122 298.1712,-86 393.8288,-86 393.8288,-122"/>
<text text-anchor="middle" x="346" y="-99.8" font-family="Times,serif" font-size="14.00" fill="#000000">FormsModule</text>
</g>
<!-- FormsModule&#45;&gt;MaterialDevpageModule -->
<g id="edge4" class="edge">
<title>FormsModule&#45;&gt;MaterialDevpageModule</title>
<path fill="none" stroke="#000000" d="M367.1518,-122.1061C367.1518,-122.1061 367.1518,-140.991 367.1518,-140.991"/>
<polygon fill="#000000" stroke="#000000" points="363.6519,-140.9909 367.1518,-150.991 370.6519,-140.991 363.6519,-140.9909"/>
</g>
<!-- MaterialFieldsModule -->
<g id="node6" class="node">
<title>MaterialFieldsModule</title>
<polygon fill="#8dd3c7" stroke="#000000" points="280.6937,-122 277.6937,-126 256.6937,-126 253.6937,-122 139.3063,-122 139.3063,-86 280.6937,-86 280.6937,-122"/>
<text text-anchor="middle" x="210" y="-99.8" font-family="Times,serif" font-size="14.00" fill="#000000">MaterialFieldsModule</text>
</g>
<!-- MaterialFieldsModule&#45;&gt;MaterialDevpageModule -->
<g id="edge5" class="edge">
<title>MaterialFieldsModule&#45;&gt;MaterialDevpageModule</title>
<path fill="none" stroke="#000000" d="M210,-122.0225C210,-139.3734 210,-163 210,-163 210,-163 330.5815,-163 330.5815,-163"/>
<polygon fill="#000000" stroke="#000000" points="330.5815,-166.5001 340.5815,-163 330.5815,-159.5001 330.5815,-166.5001"/>
</g>
<!-- RouterModule -->
<g id="node7" class="node">
<title>RouterModule</title>
<polygon fill="#8dd3c7" stroke="#000000" points="121.6528,-122 118.6528,-126 97.6528,-126 94.6528,-122 24.3472,-122 24.3472,-86 121.6528,-86 121.6528,-122"/>
<text text-anchor="middle" x="73" y="-99.8" font-family="Times,serif" font-size="14.00" fill="#000000">RouterModule</text>
</g>
<!-- RouterModule&#45;&gt;MaterialDevpageModule -->
<g id="edge6" class="edge">
<title>RouterModule&#45;&gt;MaterialDevpageModule</title>
<path fill="none" stroke="#000000" d="M73,-122.2843C73,-143.3211 73,-175 73,-175 73,-175 330.4872,-175 330.4872,-175"/>
<polygon fill="#000000" stroke="#000000" points="330.4873,-178.5001 340.4872,-175 330.4872,-171.5001 330.4873,-178.5001"/>
</g>
</g>
</svg>
