<?xml version="1.0" encoding="UTF-8" standalone="no"?>
<!DOCTYPE svg PUBLIC "-//W3C//DTD SVG 1.1//EN"
 "http://www.w3.org/Graphics/SVG/1.1/DTD/svg11.dtd">
<!-- Generated by graphviz version 2.40.1 (20161225.0304)
 -->
<!-- Title: dependencies Pages: 1 -->
<svg width="1888pt" height="284pt"
 viewBox="0.00 0.00 1888.00 284.00" xmlns="http://www.w3.org/2000/svg" xmlns:xlink="http://www.w3.org/1999/xlink">
<g id="graph0" class="graph" transform="scale(1 1) rotate(0) translate(4 280)">
<title>dependencies</title>
<polygon fill="#ffffff" stroke="transparent" points="-4,4 -4,-280 1884,-280 1884,4 -4,4"/>
<text text-anchor="start" x="919.0091" y="-42.4" font-family="sans-serif" font-weight="bold" font-size="14.00" fill="#000000">Legend</text>
<polygon fill="#ffffb3" stroke="transparent" points="706,-10 706,-30 726,-30 726,-10 706,-10"/>
<text text-anchor="start" x="729.629" y="-15.4" font-family="sans-serif" font-size="14.00" fill="#000000"> &#160;Declarations</text>
<polygon fill="#8dd3c7" stroke="transparent" points="819,-10 819,-30 839,-30 839,-10 819,-10"/>
<text text-anchor="start" x="842.7251" y="-15.4" font-family="sans-serif" font-size="14.00" fill="#000000"> &#160;Module</text>
<polygon fill="#80b1d3" stroke="transparent" points="905,-10 905,-30 925,-30 925,-10 905,-10"/>
<text text-anchor="start" x="928.7812" y="-15.4" font-family="sans-serif" font-size="14.00" fill="#000000"> &#160;Bootstrap</text>
<polygon fill="#fdb462" stroke="transparent" points="1002,-10 1002,-30 1022,-30 1022,-10 1002,-10"/>
<text text-anchor="start" x="1025.6732" y="-15.4" font-family="sans-serif" font-size="14.00" fill="#000000"> &#160;Providers</text>
<polygon fill="#fb8072" stroke="transparent" points="1098,-10 1098,-30 1118,-30 1118,-10 1098,-10"/>
<text text-anchor="start" x="1121.7258" y="-15.4" font-family="sans-serif" font-size="14.00" fill="#000000"> &#160;Exports</text>
<g id="clust1" class="cluster">
<title>cluster_FormsModule</title>
<polygon fill="none" stroke="#000000" stroke-dasharray="1,5" points="8,-70 8,-268 1872,-268 1872,-70 8,-70"/>
</g>
<g id="clust2" class="cluster">
<title>cluster_FormsModule_declarations</title>
<polygon fill="none" stroke="#000000" points="726,-78 726,-130 1864,-130 1864,-78 726,-78"/>
</g>
<g id="clust11" class="cluster">
<title>cluster_FormsModule_exports</title>
<polygon fill="none" stroke="#000000" points="503,-208 503,-260 1664,-260 1664,-208 503,-208"/>
</g>
<g id="clust13" class="cluster">
<title>cluster_FormsModule_providers</title>
<polygon fill="none" stroke="#000000" points="16,-78 16,-130 718,-130 718,-78 16,-78"/>
</g>
<!-- FieldConfigurationComponent -->
<g id="node1" class="node">
<title>FieldConfigurationComponent</title>
<polygon fill="#ffffb3" stroke="#000000" points="1856.1553,-122 1667.8447,-122 1667.8447,-86 1856.1553,-86 1856.1553,-122"/>
<text text-anchor="middle" x="1762" y="-99.8" font-family="Times,serif" font-size="14.00" fill="#000000">FieldConfigurationComponent</text>
</g>
<!-- FormsModule -->
<g id="node8" class="node">
<title>FormsModule</title>
<polygon fill="#8dd3c7" stroke="#000000" points="1127.8288,-187 1124.8288,-191 1103.8288,-191 1100.8288,-187 1032.1712,-187 1032.1712,-151 1127.8288,-151 1127.8288,-187"/>
<text text-anchor="middle" x="1080" y="-164.8" font-family="Times,serif" font-size="14.00" fill="#000000">FormsModule</text>
</g>
<!-- FieldConfigurationComponent&#45;&gt;FormsModule -->
<g id="edge1" class="edge">
<title>FieldConfigurationComponent&#45;&gt;FormsModule</title>
<path fill="none" stroke="#000000" d="M1762,-122.1061C1762,-141.3391 1762,-169 1762,-169 1762,-169 1137.6859,-169 1137.6859,-169"/>
<polygon fill="#000000" stroke="#000000" points="1137.6859,-165.5001 1127.6859,-169 1137.6858,-172.5001 1137.6859,-165.5001"/>
</g>
<!-- FieldErrorDirective -->
<g id="node2" class="node">
<title>FieldErrorDirective</title>
<polygon fill="#ffffb3" stroke="#000000" points="1649.3962,-122 1522.6038,-122 1522.6038,-86 1649.3962,-86 1649.3962,-122"/>
<text text-anchor="middle" x="1586" y="-99.8" font-family="Times,serif" font-size="14.00" fill="#000000">FieldErrorDirective</text>
</g>
<!-- FieldErrorDirective&#45;&gt;FormsModule -->
<g id="edge2" class="edge">
<title>FieldErrorDirective&#45;&gt;FormsModule</title>
<path fill="none" stroke="#000000" d="M1586,-122.302C1586,-140.2699 1586,-165 1586,-165 1586,-165 1138.0594,-165 1138.0594,-165"/>
<polygon fill="#000000" stroke="#000000" points="1138.0595,-161.5001 1128.0594,-165 1138.0594,-168.5001 1138.0595,-161.5001"/>
</g>
<!-- FieldLabelDirective -->
<g id="node3" class="node">
<title>FieldLabelDirective</title>
<polygon fill="#ffffb3" stroke="#000000" points="1504.2339,-122 1375.7661,-122 1375.7661,-86 1504.2339,-86 1504.2339,-122"/>
<text text-anchor="middle" x="1440" y="-99.8" font-family="Times,serif" font-size="14.00" fill="#000000">FieldLabelDirective</text>
</g>
<!-- FieldLabelDirective&#45;&gt;FormsModule -->
<g id="edge3" class="edge">
<title>FieldLabelDirective&#45;&gt;FormsModule</title>
<path fill="none" stroke="#000000" d="M1410.7905,-122.027C1410.7905,-138.3976 1410.7905,-160 1410.7905,-160 1410.7905,-160 1137.7465,-160 1137.7465,-160"/>
<polygon fill="#000000" stroke="#000000" points="1137.7465,-156.5001 1127.7465,-160 1137.7465,-163.5001 1137.7465,-156.5001"/>
</g>
<!-- FieldOutletDirective -->
<g id="node4" class="node">
<title>FieldOutletDirective</title>
<polygon fill="#ffffb3" stroke="#000000" points="1357.8543,-122 1226.1457,-122 1226.1457,-86 1357.8543,-86 1357.8543,-122"/>
<text text-anchor="middle" x="1292" y="-99.8" font-family="Times,serif" font-size="14.00" fill="#000000">FieldOutletDirective</text>
</g>
<!-- FieldOutletDirective&#45;&gt;FormsModule -->
<g id="edge4" class="edge">
<title>FieldOutletDirective&#45;&gt;FormsModule</title>
<path fill="none" stroke="#000000" d="M1262.0949,-122.1871C1262.0949,-137.1824 1262.0949,-156 1262.0949,-156 1262.0949,-156 1137.8433,-156 1137.8433,-156"/>
<polygon fill="#000000" stroke="#000000" points="1137.8433,-152.5001 1127.8433,-156 1137.8432,-159.5001 1137.8433,-152.5001"/>
</g>
<!-- FormComponent -->
<g id="node5" class="node">
<title>FormComponent</title>
<polygon fill="#ffffb3" stroke="#000000" points="1207.6667,-122 1096.3333,-122 1096.3333,-86 1207.6667,-86 1207.6667,-122"/>
<text text-anchor="middle" x="1152" y="-99.8" font-family="Times,serif" font-size="14.00" fill="#000000">FormComponent</text>
</g>
<!-- FormComponent&#45;&gt;FormsModule -->
<g id="edge5" class="edge">
<title>FormComponent&#45;&gt;FormsModule</title>
<path fill="none" stroke="#000000" d="M1111.9155,-122.1061C1111.9155,-122.1061 1111.9155,-140.991 1111.9155,-140.991"/>
<polygon fill="#000000" stroke="#000000" points="1108.4156,-140.9909 1111.9155,-150.991 1115.4156,-140.991 1108.4156,-140.9909"/>
</g>
<!-- FormSubmitDirective -->
<g id="node6" class="node">
<title>FormSubmitDirective</title>
<polygon fill="#ffffb3" stroke="#000000" points="1078.3711,-122 939.6289,-122 939.6289,-86 1078.3711,-86 1078.3711,-122"/>
<text text-anchor="middle" x="1009" y="-99.8" font-family="Times,serif" font-size="14.00" fill="#000000">FormSubmitDirective</text>
</g>
<!-- FormSubmitDirective&#45;&gt;FormsModule -->
<g id="edge6" class="edge">
<title>FormSubmitDirective&#45;&gt;FormsModule</title>
<path fill="none" stroke="#000000" d="M1055.3857,-122.1061C1055.3857,-122.1061 1055.3857,-140.991 1055.3857,-140.991"/>
<polygon fill="#000000" stroke="#000000" points="1051.8858,-140.9909 1055.3857,-150.991 1058.8858,-140.991 1051.8858,-140.9909"/>
</g>
<!-- OverrideFieldNamedDirective -->
<g id="node7" class="node">
<title>OverrideFieldNamedDirective</title>
<polygon fill="#ffffb3" stroke="#000000" points="921.5352,-122 734.4648,-122 734.4648,-86 921.5352,-86 921.5352,-122"/>
<text text-anchor="middle" x="828" y="-99.8" font-family="Times,serif" font-size="14.00" fill="#000000">OverrideFieldNamedDirective</text>
</g>
<!-- OverrideFieldNamedDirective&#45;&gt;FormsModule -->
<g id="edge7" class="edge">
<title>OverrideFieldNamedDirective&#45;&gt;FormsModule</title>
<path fill="none" stroke="#000000" d="M900.4673,-122.1871C900.4673,-137.1824 900.4673,-156 900.4673,-156 900.4673,-156 1021.8885,-156 1021.8885,-156"/>
<polygon fill="#000000" stroke="#000000" points="1021.8886,-159.5001 1031.8885,-156 1021.8885,-152.5001 1021.8886,-159.5001"/>
</g>
<!-- FieldConfigurationComponent  -->
<g id="node9" class="node">
<title>FieldConfigurationComponent </title>
<polygon fill="#fb8072" stroke="#000000" points="1656.1551,-252 1463.8449,-252 1463.8449,-216 1656.1551,-216 1656.1551,-252"/>
<text text-anchor="middle" x="1560" y="-229.8" font-family="Times,serif" font-size="14.00" fill="#000000">FieldConfigurationComponent </text>
</g>
<!-- FormsModule&#45;&gt;FieldConfigurationComponent  -->
<g id="edge8" class="edge">
<title>FormsModule&#45;&gt;FieldConfigurationComponent </title>
<path fill="none" stroke="#000000" stroke-dasharray="5,2" d="M1127.9477,-174C1235.0015,-174 1484.1447,-174 1484.1447,-174 1484.1447,-174 1484.1447,-205.998 1484.1447,-205.998"/>
<polygon fill="#000000" stroke="#000000" points="1480.6447,-205.998 1484.1447,-215.998 1487.6447,-205.9981 1480.6447,-205.998"/>
</g>
<!-- FieldErrorDirective  -->
<g id="node10" class="node">
<title>FieldErrorDirective </title>
<polygon fill="#fb8072" stroke="#000000" points="1445.8956,-252 1316.1044,-252 1316.1044,-216 1445.8956,-216 1445.8956,-252"/>
<text text-anchor="middle" x="1381" y="-229.8" font-family="Times,serif" font-size="14.00" fill="#000000">FieldErrorDirective </text>
</g>
<!-- FormsModule&#45;&gt;FieldErrorDirective  -->
<g id="edge9" class="edge">
<title>FormsModule&#45;&gt;FieldErrorDirective </title>
<path fill="none" stroke="#000000" stroke-dasharray="5,2" d="M1127.7355,-178C1202.055,-178 1336.9897,-178 1336.9897,-178 1336.9897,-178 1336.9897,-205.973 1336.9897,-205.973"/>
<polygon fill="#000000" stroke="#000000" points="1333.4897,-205.973 1336.9897,-215.973 1340.4897,-205.973 1333.4897,-205.973"/>
</g>
<!-- FieldLabelDirective  -->
<g id="node11" class="node">
<title>FieldLabelDirective </title>
<polygon fill="#fb8072" stroke="#000000" points="1298.2338,-252 1165.7662,-252 1165.7662,-216 1298.2338,-216 1298.2338,-252"/>
<text text-anchor="middle" x="1232" y="-229.8" font-family="Times,serif" font-size="14.00" fill="#000000">FieldLabelDirective </text>
</g>
<!-- FormsModule&#45;&gt;FieldLabelDirective  -->
<g id="edge10" class="edge">
<title>FormsModule&#45;&gt;FieldLabelDirective </title>
<path fill="none" stroke="#000000" stroke-dasharray="5,2" d="M1127.8033,-183C1156.2548,-183 1186.8582,-183 1186.8582,-183 1186.8582,-183 1186.8582,-205.8757 1186.8582,-205.8757"/>
<polygon fill="#000000" stroke="#000000" points="1183.3582,-205.8757 1186.8582,-215.8757 1190.3582,-205.8757 1183.3582,-205.8757"/>
</g>
<!-- FieldOutletDirective  -->
<g id="node12" class="node">
<title>FieldOutletDirective </title>
<polygon fill="#fb8072" stroke="#000000" points="1147.8547,-252 1012.1453,-252 1012.1453,-216 1147.8547,-216 1147.8547,-252"/>
<text text-anchor="middle" x="1080" y="-229.8" font-family="Times,serif" font-size="14.00" fill="#000000">FieldOutletDirective </text>
</g>
<!-- FormsModule&#45;&gt;FieldOutletDirective  -->
<g id="edge11" class="edge">
<title>FormsModule&#45;&gt;FieldOutletDirective </title>
<path fill="none" stroke="#000000" stroke-dasharray="5,2" d="M1080,-187.1061C1080,-187.1061 1080,-205.991 1080,-205.991"/>
<polygon fill="#000000" stroke="#000000" points="1076.5001,-205.9909 1080,-215.991 1083.5001,-205.991 1076.5001,-205.9909"/>
</g>
<!-- FormComponent  -->
<g id="node13" class="node">
<title>FormComponent </title>
<polygon fill="#fb8072" stroke="#000000" points="994.6663,-252 879.3337,-252 879.3337,-216 994.6663,-216 994.6663,-252"/>
<text text-anchor="middle" x="937" y="-229.8" font-family="Times,serif" font-size="14.00" fill="#000000">FormComponent </text>
</g>
<!-- FormsModule&#45;&gt;FormComponent  -->
<g id="edge12" class="edge">
<title>FormsModule&#45;&gt;FormComponent </title>
<path fill="none" stroke="#000000" stroke-dasharray="5,2" d="M1032.1091,-183C1001.3311,-183 967.0738,-183 967.0738,-183 967.0738,-183 967.0738,-205.8757 967.0738,-205.8757"/>
<polygon fill="#000000" stroke="#000000" points="963.5739,-205.8757 967.0738,-215.8757 970.5739,-205.8757 963.5739,-205.8757"/>
</g>
<!-- FormSubmitDirective  -->
<g id="node14" class="node">
<title>FormSubmitDirective </title>
<polygon fill="#fb8072" stroke="#000000" points="861.3715,-252 718.6285,-252 718.6285,-216 861.3715,-216 861.3715,-252"/>
<text text-anchor="middle" x="790" y="-229.8" font-family="Times,serif" font-size="14.00" fill="#000000">FormSubmitDirective </text>
</g>
<!-- FormsModule&#45;&gt;FormSubmitDirective  -->
<g id="edge13" class="edge">
<title>FormsModule&#45;&gt;FormSubmitDirective </title>
<path fill="none" stroke="#000000" stroke-dasharray="5,2" d="M1032.1344,-178C951.6312,-178 797.834,-178 797.834,-178 797.834,-178 797.834,-205.973 797.834,-205.973"/>
<polygon fill="#000000" stroke="#000000" points="794.334,-205.973 797.834,-215.973 801.334,-205.973 794.334,-205.973"/>
</g>
<!-- OverrideFieldNamedDirective  -->
<g id="node15" class="node">
<title>OverrideFieldNamedDirective </title>
<polygon fill="#fb8072" stroke="#000000" points="701.0358,-252 510.9642,-252 510.9642,-216 701.0358,-216 701.0358,-252"/>
<text text-anchor="middle" x="606" y="-229.8" font-family="Times,serif" font-size="14.00" fill="#000000">OverrideFieldNamedDirective </text>
</g>
<!-- FormsModule&#45;&gt;OverrideFieldNamedDirective  -->
<g id="edge14" class="edge">
<title>FormsModule&#45;&gt;OverrideFieldNamedDirective </title>
<path fill="none" stroke="#000000" stroke-dasharray="5,2" d="M1031.9522,-174C913.0564,-174 614.6512,-174 614.6512,-174 614.6512,-174 614.6512,-205.998 614.6512,-205.998"/>
<polygon fill="#000000" stroke="#000000" points="611.1513,-205.998 614.6512,-215.998 618.1513,-205.9981 611.1513,-205.998"/>
</g>
<!-- FormControlFactory -->
<g id="node16" class="node">
<title>FormControlFactory</title>
<ellipse fill="#fdb462" stroke="#000000" cx="619" cy="-104" rx="90.9302" ry="18"/>
<text text-anchor="middle" x="619" y="-99.8" font-family="Times,serif" font-size="14.00" fill="#000000">FormControlFactory</text>
</g>
<!-- FormControlFactory&#45;&gt;FormsModule -->
<g id="edge15" class="edge">
<title>FormControlFactory&#45;&gt;FormsModule</title>
<path fill="none" stroke="#000000" d="M705.6164,-109.5742C705.6164,-123.7388 705.6164,-160 705.6164,-160 705.6164,-160 1022.2038,-160 1022.2038,-160"/>
<polygon fill="#000000" stroke="#000000" points="1022.2038,-163.5001 1032.2038,-160 1022.2037,-156.5001 1022.2038,-163.5001"/>
</g>
<!-- InputComponentFactoryResolver -->
<g id="node17" class="node">
<title>InputComponentFactoryResolver</title>
<ellipse fill="#fdb462" stroke="#000000" cx="370" cy="-104" rx="140.1148" ry="18"/>
<text text-anchor="middle" x="370" y="-99.8" font-family="Times,serif" font-size="14.00" fill="#000000">InputComponentFactoryResolver</text>
</g>
<!-- InputComponentFactoryResolver&#45;&gt;FormsModule -->
<g id="edge16" class="edge">
<title>InputComponentFactoryResolver&#45;&gt;FormsModule</title>
<path fill="none" stroke="#000000" d="M370,-122.302C370,-140.2699 370,-165 370,-165 370,-165 1022.3124,-165 1022.3124,-165"/>
<polygon fill="#000000" stroke="#000000" points="1022.3125,-168.5001 1032.3124,-165 1022.3124,-161.5001 1022.3125,-168.5001"/>
</g>
<!-- ProxyInjectorFactory -->
<g id="node18" class="node">
<title>ProxyInjectorFactory</title>
<ellipse fill="#fdb462" stroke="#000000" cx="118" cy="-104" rx="93.7591" ry="18"/>
<text text-anchor="middle" x="118" y="-99.8" font-family="Times,serif" font-size="14.00" fill="#000000">ProxyInjectorFactory</text>
</g>
<!-- ProxyInjectorFactory&#45;&gt;FormsModule -->
<g id="edge17" class="edge">
<title>ProxyInjectorFactory&#45;&gt;FormsModule</title>
<path fill="none" stroke="#000000" d="M118,-122.1061C118,-141.3391 118,-169 118,-169 118,-169 1022.2943,-169 1022.2943,-169"/>
<polygon fill="#000000" stroke="#000000" points="1022.2943,-172.5001 1032.2943,-169 1022.2942,-165.5001 1022.2943,-172.5001"/>
</g>
</g>
</svg>
